<svg width="245" height="245" viewBox="0 0 245 245" fill="none" xmlns="http://www.w3.org/2000/svg">
<path d="M116.868 50V142.314C116.868 159.417 112.357 172.412 103.334 181.3C94.446 190.053 81.922 194.43 65.762 194.43C48.39 194.43 34.5867 189.649 24.352 180.088C14.1173 170.527 9 156.589 9 138.274H53.238C53.238 144.065 54.1807 148.172 56.066 150.596C57.9513 152.885 60.51 154.03 63.742 154.03C66.4353 154.03 68.5227 153.155 70.004 151.404C71.4853 149.653 72.226 146.623 72.226 142.314V50H116.868Z" fill="white"/>
<rect x="127" y="50" width="100" height="36" fill="white"/>
<rect x="127" y="98" width="60" height="36" fill="white"/>
</svg>
